<svg width="73" height="17" viewBox="0 0 73 17" fill="none" xmlns="http://www.w3.org/2000/svg">
<path d="M50.6576 0.893834H48.1352C48.0787 0.896079 48.0251 0.920517 47.9847 0.962379C47.9443 1.00424 47.9201 1.06052 47.9169 1.12024V6.93148H45.3945V1.11081C45.3913 1.05186 45.3677 0.996216 45.3283 0.954466C45.2888 0.912715 45.2363 0.887775 45.1806 0.884399H42.6582C42.6025 0.887775 42.5499 0.912715 42.5105 0.954466C42.471 0.996216 42.4475 1.05186 42.4443 1.11081V16.021C42.4475 16.0799 42.471 16.1356 42.5105 16.1773C42.5499 16.2191 42.6025 16.244 42.6582 16.2474H45.1806C45.2363 16.244 45.2888 16.2191 45.3283 16.1773C45.3677 16.1356 45.3913 16.0799 45.3945 16.021V10.0729H47.9169V16.0351C47.9211 16.0945 47.9456 16.1502 47.9858 16.1918C48.0259 16.2335 48.0791 16.2583 48.1352 16.2615H50.6576C50.7133 16.2582 50.7659 16.2332 50.8053 16.1915C50.8447 16.1497 50.8683 16.0941 50.8715 16.0351V1.11081C50.8683 1.05186 50.8447 0.996216 50.8053 0.954466C50.7659 0.912715 50.7133 0.887775 50.6576 0.884399V0.893834ZM29.4002 0.884399H26.8778C26.8487 0.879563 26.8189 0.882083 26.7909 0.891751C26.7628 0.901419 26.7373 0.917964 26.7165 0.940035C26.6956 0.962106 26.68 0.989079 26.6709 1.01876C26.6617 1.04843 26.6593 1.07998 26.6639 1.11081V11.672C26.6767 12.1106 26.5495 12.5409 26.3029 12.8937C26.2012 13.0297 26.0685 13.1361 25.9173 13.2029C25.7661 13.2697 25.6013 13.2948 25.4384 13.2757C25.2775 13.2765 25.118 13.243 24.9695 13.1774C24.821 13.1118 24.6865 13.0153 24.5738 12.8937C24.3253 12.542 24.198 12.1109 24.2129 11.672V1.11081C24.2096 1.05109 24.1854 0.994809 24.145 0.952947C24.1046 0.911085 24.051 0.886643 23.9945 0.884399H21.4721C21.443 0.879563 21.4132 0.882083 21.3851 0.891751C21.3571 0.901419 21.3316 0.917964 21.3108 0.940035C21.2899 0.962106 21.2743 0.989079 21.2652 1.01876C21.256 1.04843 21.2536 1.07998 21.2582 1.11081V11.7522C21.2582 13.1248 21.5479 14.4172 22.3367 15.271C22.7483 15.697 23.2365 16.0313 23.7723 16.2541C24.3081 16.4769 24.8807 16.5837 25.4562 16.5681C26.0333 16.5976 26.6097 16.4972 27.1474 16.2736C27.6851 16.05 28.1719 15.7083 28.5757 15.271C29.369 14.4314 29.6587 13.2097 29.6587 11.7522V1.11081C29.6487 1.04982 29.6194 0.994226 29.5757 0.953102C29.532 0.911978 29.4764 0.887756 29.418 0.884399H29.4002ZM4.70239 0.653271C4.1254 0.624408 3.54916 0.725063 3.01152 0.948621C2.47388 1.17218 1.98701 1.51359 1.58286 1.95042C0.789609 2.79003 0.504395 4.007 0.504395 5.46924V11.8276C0.504395 13.2003 0.789609 14.4974 1.58286 15.3465C1.99448 15.7725 2.48264 16.1068 3.01846 16.3296C3.55429 16.5524 4.12689 16.6591 4.70239 16.6436C5.27939 16.6725 5.85563 16.5718 6.39327 16.3483C6.93091 16.1247 7.41778 15.7833 7.82193 15.3465C8.61518 14.5068 8.90485 13.2899 8.90485 11.8276V8.32769C8.89876 8.24853 8.86628 8.17423 8.81322 8.11807C8.76016 8.06191 8.68997 8.02754 8.61518 8.02109H4.90294C4.82783 8.02659 4.75713 8.06066 4.70389 8.11701C4.65065 8.17336 4.61846 8.24819 4.61327 8.32769V10.9314C4.61753 11.0113 4.64941 11.0867 4.70284 11.1432C4.75627 11.1998 4.8275 11.2335 4.90294 11.238H5.85217V11.8465C5.86577 12.3086 5.73928 12.7632 5.49119 13.1437C5.38948 13.2797 5.25677 13.3861 5.10555 13.4529C4.95432 13.5197 4.78952 13.5448 4.62664 13.5257C4.46571 13.5265 4.30628 13.493 4.15778 13.4274C4.00928 13.3618 3.87473 13.2653 3.76208 13.1437C3.51313 12.7636 3.38655 12.3087 3.4011 11.8465V5.56829C3.38591 5.10599 3.51255 4.65091 3.76208 4.27114C3.86434 4.13581 3.99713 4.02989 4.14821 3.96312C4.29929 3.89636 4.46382 3.87089 4.62664 3.88907C4.95116 3.89072 5.26191 4.02805 5.49119 4.27114C5.73675 4.65291 5.86301 5.10659 5.85217 5.56829V6.18149C5.85536 6.24044 5.87892 6.29609 5.91836 6.33784C5.95781 6.37959 6.01038 6.40453 6.06608 6.40791H8.58844C8.61774 6.41254 8.64765 6.40991 8.67583 6.40024C8.704 6.39058 8.72968 6.37413 8.75084 6.35219C8.772 6.33025 8.78806 6.30342 8.79777 6.2738C8.80749 6.24419 8.81058 6.21259 8.80681 6.18149V5.56829C8.80681 4.19567 8.51714 2.89852 7.72389 2.04948C7.35271 1.5858 6.88518 1.21934 6.35791 0.978753C5.83064 0.73817 5.25792 0.630002 4.68457 0.662707L4.70239 0.653271ZM37.2169 12.8276C37.1025 12.9716 36.9553 13.0824 36.7891 13.1492C36.623 13.2161 36.4435 13.2369 36.2676 13.2097H34.8237V9.97861H36.2676C36.4285 9.97787 36.588 10.0113 36.7365 10.0769C36.885 10.1425 37.0195 10.239 37.1322 10.3607C37.356 10.7252 37.4821 11.1473 37.497 11.5817C37.5119 12.0162 37.4151 12.4468 37.2169 12.8276ZM34.8237 4.03058H36.1206C36.2806 4.01435 36.442 4.04081 36.5899 4.10755C36.7378 4.17429 36.8675 4.27918 36.9673 4.41265C37.1932 4.71898 37.2971 5.10657 37.257 5.49282C37.2851 5.89852 37.183 6.30238 36.9673 6.63903C36.7606 6.86836 36.4777 7.00367 36.1785 7.01639H34.8817V4.03058H34.8237ZM39.0173 8.38901C39.7627 7.62069 40.2013 6.57906 40.2428 5.47867C40.2749 4.33154 39.9014 3.21301 39.1955 2.34193C38.7979 1.89121 38.3139 1.53559 37.7759 1.29887C37.2379 1.06215 36.6583 0.949787 36.076 0.969303H32.1231C32.0674 0.97268 32.0148 0.997619 31.9754 1.03937C31.9359 1.08112 31.9124 1.13677 31.9092 1.19572V16.12C31.9124 16.179 31.9359 16.2346 31.9754 16.2764C32.0148 16.3181 32.0674 16.3431 32.1231 16.3464H36.3166C36.9504 16.3643 37.5796 16.2281 38.1559 15.9485C38.7322 15.6688 39.2403 15.2531 39.6412 14.7333C40.2798 13.8275 40.6139 12.7217 40.5904 11.5918C40.5711 10.9634 40.416 10.348 40.1371 9.79281C39.8583 9.23764 39.463 8.75743 38.9816 8.38901H39.0173ZM16.0218 6.93148C15.8986 7.08924 15.742 7.21412 15.5647 7.29605C15.3874 7.37798 15.1944 7.41468 15.0013 7.40317H13.7936V4.04473H15.0191C15.2122 4.03397 15.4049 4.07101 15.5821 4.15289C15.7592 4.23477 15.9159 4.35924 16.0397 4.51642C16.1763 4.68261 16.279 4.87696 16.3411 5.08723C16.4032 5.2975 16.4235 5.51912 16.4006 5.7381C16.4266 5.95722 16.4078 6.17968 16.3455 6.39045C16.2833 6.60122 16.179 6.79537 16.0397 6.95978L16.0218 6.93148ZM17.6173 9.68616C17.8901 9.49936 18.1337 9.2686 18.3392 9.00221C19.1049 8.06972 19.5162 6.86954 19.4934 5.63433C19.5176 5.03045 19.4279 4.42752 19.2298 3.86065C19.0316 3.29379 18.7289 2.77432 18.3392 2.33249C17.9554 1.88092 17.4869 1.51894 16.9637 1.26962C16.4404 1.0203 15.8737 0.8891 15.2999 0.884399H11.1197C11.0632 0.886643 11.0096 0.911085 10.9692 0.952947C10.9288 0.994809 10.9046 1.05109 10.9014 1.11081V16.021C10.9046 16.0807 10.9288 16.137 10.9692 16.1788C11.0096 16.2207 11.0632 16.2451 11.1197 16.2474H13.6421C13.6978 16.244 13.7504 16.2191 13.7898 16.1773C13.8292 16.1356 13.8528 16.0799 13.856 16.021V10.5022H14.7206L16.316 16.1625C16.316 16.238 16.463 16.3134 16.5343 16.3134H19.2082C19.2795 16.3134 19.3553 16.238 19.4266 16.238C19.4979 16.238 19.4979 16.0823 19.4979 16.0068L17.6351 9.67673L17.6173 9.68616ZM69.0628 12.8276C68.9497 12.972 68.8033 13.083 68.6378 13.1499C68.4723 13.2169 68.2933 13.2374 68.1181 13.2097H66.6742V9.97861H68.1181C68.2789 9.97839 68.4382 10.0121 68.5866 10.0777C68.7351 10.1433 68.8697 10.2395 68.9826 10.3607C69.2168 10.6911 69.342 11.0938 69.3391 11.5069C69.3874 11.735 69.3876 11.9716 69.3399 12.1998C69.2921 12.428 69.1976 12.6424 69.0628 12.8276ZM66.7455 4.03058H68.0423C68.2052 4.01106 68.3701 4.03591 68.5215 4.10278C68.6728 4.16964 68.8054 4.2763 68.9069 4.41265C69.1327 4.71898 69.2367 5.10657 69.1965 5.49282C69.2247 5.89852 69.1226 6.30238 68.9069 6.63903C68.7001 6.86836 68.4173 7.00367 68.1181 7.01639H66.8257V4.03058H66.7455ZM70.939 8.38901C71.6844 7.62069 72.123 6.57906 72.1645 5.47867C72.2041 4.33525 71.8403 3.21716 71.144 2.34193C70.7464 1.89121 70.2623 1.53559 69.7244 1.29887C69.1864 1.06215 68.6068 0.949787 68.0245 0.969303H64.0136C63.958 0.97268 63.9054 0.997619 63.8659 1.03937C63.8265 1.08112 63.8029 1.13677 63.7997 1.19572V16.12C63.8029 16.179 63.8265 16.2346 63.8659 16.2764C63.9054 16.3181 63.958 16.3431 64.0136 16.3464H68.2295C68.8633 16.3646 69.4926 16.2286 70.0689 15.949C70.6453 15.6693 71.1534 15.2534 71.554 14.7333C72.1926 13.8275 72.5268 12.7217 72.5032 11.5918C72.4566 10.9713 72.2912 10.3673 72.0169 9.81665C71.7426 9.26602 71.3652 8.78026 70.9078 8.38901H70.939ZM61.2729 0.893834H58.7506C58.7213 0.889205 58.6913 0.891826 58.6632 0.901492C58.635 0.911159 58.6093 0.927607 58.5882 0.949546C58.567 0.971485 58.5509 0.998316 58.5412 1.02793C58.5315 1.05755 58.5284 1.08915 58.5322 1.12024V11.6814C58.5462 12.1194 58.4207 12.5498 58.1757 12.9031C58.0737 13.0388 57.9409 13.1449 57.7898 13.2117C57.6386 13.2785 57.474 13.3038 57.3111 13.2852C57.1501 13.2864 56.9905 13.2533 56.842 13.1876C56.6934 13.1219 56.5589 13.0252 56.4466 12.9031C56.1981 12.5514 56.0707 12.1203 56.0856 11.6814V1.11081C56.0813 1.05145 56.0568 0.995749 56.0167 0.954091C55.9765 0.912434 55.9234 0.887663 55.8672 0.884399H53.3359C53.3066 0.879769 53.2767 0.882394 53.2485 0.89206C53.2204 0.901727 53.1947 0.918175 53.1735 0.940114C53.1524 0.962053 53.1363 0.988883 53.1266 1.0185C53.1169 1.04812 53.1138 1.07972 53.1176 1.11081V11.7522C53.1176 13.1248 53.4072 14.4172 54.2005 15.271C54.6119 15.6972 55.1001 16.0316 55.6359 16.2545C56.1718 16.4773 56.7445 16.5839 57.32 16.5681C57.897 16.597 58.4732 16.4963 59.0109 16.2728C59.5485 16.0492 60.0354 15.7078 60.4395 15.271C61.2283 14.4314 61.518 13.2097 61.518 11.7522V1.11081C61.5893 1.03534 61.4467 0.884399 61.2907 0.884399" fill="#FFFEF5"/>
</svg>
