<svg fill="none" height="18" viewBox="0 0 107 18" width="107" xmlns="http://www.w3.org/2000/svg"><g fill="#fcfcf7"><path d="m50.1792 6.86486c-1.5832 0-2.7036 1.20683-2.7036 3.05862v6.80182h-2.4356v-11.96943h2.3869v1.46403c.2952-.48412.7175-.88271 1.2234-1.15467.506-.27196 1.0771-.40744 1.6547-.39245h.8728v2.19603zm-6.7954 3.87764c0-3.5611-2.6061-6.23986-6.1296-6.23986-.8307.00414-1.6524.16786-2.4181.4818-.7658.31394-1.4605.77194-2.0445 1.3478s-1.0458 1.25829-1.359 2.00826-.4717 1.55276-.4663 2.3625v.0395c-.0117.8316.1487 1.657.4718 2.4267.3231.7698.8022 1.4681 1.4085 2.0532s1.3275 1.045 2.1204 1.3522 1.6412.4553 2.4942.4355c1.0252.0162 2.0394-.2075 2.9576-.6523.9182-.4447 1.7136-1.0976 2.3196-1.9038l-1.7496-1.2582c-.4018.5483-.9343.9933-1.5516 1.2965-.6173.3033-1.301.4558-1.9922.4445-.9852-.0038-1.9363-.3516-2.681-.9802-.7448-.6286-1.2338-1.4966-1.3784-2.4464h9.9657zm-9.9048-1.09996c.4384-1.82409 1.9282-3.06257 3.7427-3.06257.8887.00713 1.7467.31734 2.4252.87677.6784.55944 1.1346 1.33278 1.2891 2.1858zm-10.1484-5.14386c-.8082-.00091-1.6084.15501-2.3542.45867-.7457.30367-1.4219.749-1.9893 1.31003v-5.982712h-2.4356v16.444532h2.391v-1.5194c.5725.5651 1.2536 1.0146 2.0045 1.3228s1.5567.4692 2.3715.4736c.8422.0174 1.6798-.1271 2.4647-.4252.785-.2981 1.5021-.744 2.1103-1.3122s1.0956-1.2476 1.4344-1.9995c.3389-.7518.5224-1.5613.5403-2.3823s-.1303-1.63742-.4362-2.40258c-.3058-.76516-.7632-1.46411-1.3462-2.05695-.5829-.59284-1.28-1.06795-2.0513-1.39822-.7713-.33026-1.6018-.5092-2.4441-.52661h-.276zm-.1745 10.39852c-.8414.0039-1.6651-.2355-2.3669-.6879s-1.2502-1.0975-1.5759-1.8537-.414-1.5895-.2538-2.39469c.1602-.80514.5617-1.54589 1.1538-2.12858.5922-.58269 1.3482-.98115 2.1727-1.14499.8244-.16384 1.6802-.0857 2.459.22453.7789.31023 1.4459.83863 1.9167 1.51837s.7243 1.48029.7283 2.30046v.0356c.0005.5404-.1082 1.0756-.3198 1.5751-.2117.4994-.5222.9534-.9139 1.3358-.3916.3825-.8567.6861-1.3687.8934s-1.0609.3142-1.6153.3147zm-15.4905-.1147c2.33413 0 4.1405-1.741 4.1405-4.3525v-10.145332h2.5168v16.444532h-2.4762v-1.559c-.5783.5838-1.2723 1.0469-2.03995 1.3612-.76761.3142-1.59276.4731-2.4253.4669-3.61282 0-6.385356-2.5561-6.385356-6.4259v-10.287732h2.549276v10.161132c0 2.6273 1.7374 4.3525 4.10806 4.3525z"/><path d="m55.8242.284668h11.8292v2.820782h-8.6355v3.99809h8.392v2.72597h-8.392v4.06919h8.6355v2.8168h-11.8292zm44.5008 16.727132c3.628 0 5.681-1.6908 5.681-4.0138 0-1.6514-1.218-2.888-3.742-3.42134l-2.6779-.53333c-1.5543-.2805-2.0291-.561-2.0291-1.12595 0-.73088.7467-1.1852 2.1305-1.1852 1.4935 0 2.6055.39507 2.8935 1.7383h3.137c-.171-2.53634-2.029-4.21143-5.8398-4.21143-3.2829 0-5.5879 1.31953-5.5879 3.87562 0 1.76595 1.2702 2.91563 4.0012 3.47663l2.9945.6755c1.181.2252 1.498.5334 1.498 1.0114 0 .7585-.893 1.2326-2.334 1.2326-1.8135 0-2.8402-.395-3.246-1.7383h-3.1531c.4302 2.5364 2.3577 4.2193 6.2741 4.2193zm-7.2156-.3081h-3.3965c-2.1305 0-3.3114-1.2879-3.3114-2.9196v-6.45142h-2.3902v-2.76548h2.3983v-3.43709h3.1572v3.44895h3.5386v2.76547h-3.5386v5.66527c0 .644.4626.9561 1.1809.9561h2.3617zm-13.6065-12.11674v1.09434c-1.1101-.9148-2.5185-1.4148-3.9729-1.4104-.8663-.02897-1.73.10989-2.5408.40852s-1.5526.75107-2.1823 1.33107-1.1348 1.276-1.486 2.04759c-.3512.7716-.5414 1.60342-.5597 2.44722-.0183.8437.1358 1.6826.4532 2.4679.3175.7853.792 1.5015 1.3961 2.1068.604.6053 1.3256 1.0878 2.1227 1.4194.7972.3317 1.654.5058 2.5209.5124h.2759c1.4545.0051 2.8632-.4949 3.9729-1.4103v1.0903h3.149v-12.11274zm-3.7131 9.76214c-.7528.0085-1.4913-.2004-2.1221-.6005-.6308-.4-1.1255-.9731-1.4217-1.6469s-.3806-1.418-.2424-2.13844c.1383-.72045.4928-1.38482 1.0188-1.90911.5261-.52428 1.2-.88492 1.9366-1.03634.7366-.15141 1.5027-.08679 2.2016.1857.6988.27248 1.299.7406 1.7246 1.34515s.6575 1.31838.6663 2.05124v.0474c.0049.4808-.0877.9577-.2724 1.4036-.1846.4459-.4577.852-.8037 1.1951-.346.343-.7581.6164-1.2126.8043-.4546.1879-.9427.2868-1.4365.2909h-.0406z"/></g></svg>