<svg fill="none" height="18" viewBox="0 0 143 18" width="143" xmlns="http://www.w3.org/2000/svg" xmlns:xlink="http://www.w3.org/1999/xlink"><clipPath id="a"><path d="m.005859.148193h142v17h-142z"/></clipPath><g clip-path="url(#a)"><path d="m41.1996 4.94035v7.42805h1.8082c.4614-.007.9168-.1088 1.3392-.2992.4224-.1905.8032-.4657 1.1199-.8096.6501-.7049 1.0058-1.64185.9913-2.61136.0138-.48156-.0655-.96116-.2332-1.41126-.1677-.45009-.4207-.86179-.7442-1.21147-.318-.34431-.7015-.6183-1.1268-.80509s-.8835-.28242-1.3462-.28102h-1.8073zm1.8082-2.329c3.3702 0 5.9197 2.67466 5.9197 6.03689 0 3.36226-2.5495 6.05196-5.9197 6.05196h-3.988c-.038-.0005-.0756-.0086-.1105-.024-.035-.0153-.0666-.0376-.0932-.0655-.0265-.0279-.0474-.0608-.0615-.097s-.0211-.0749-.0207-.1138v-11.47594c0-.16622.1282-.30128.2859-.30128zm14.6066 10.01585c1.5307.0047 2.9129-.9596 3.5021-2.4433.2886-.72493.3657-1.52005.222-2.28898s-.502-1.47867-1.0316-2.04318c-.5203-.55525-1.1929-.93574-1.9288-1.09122-.7359-.15547-1.5006-.07861-2.1929.22044-1.4145.612-2.3384 2.05983-2.3412 3.66728 0 2.19106 1.6847 3.96856 3.7704 3.97896zm.0009-10.28974c3.5473 0 6.2591 2.86355 6.2591 6.31078 0 3.44726-2.7118 6.31076-6.26 6.31076-3.5472 0-6.236-2.8494-6.236-6.31076 0-3.46139 2.7127-6.31078 6.2369-6.31078zm14.8759 10.28974c2.0867-.0057 3.775-1.785 3.7732-3.97613-.0028-2.193-1.6948-3.96856-3.7806-3.9695-2.0876 0-3.7805 1.77461-3.7832 3.96667 0 1.05589.3992 2.06836 1.1101 2.81446.348.3677.7644.6602 1.2247.8602.4602.2.9559.3035 1.4558.3043zm-.0009-10.28974c3.5362 0 6.248 2.84939 6.248 6.31078 0 3.46136-2.7229 6.31076-6.248 6.31076-3.5242 0-6.2591-2.8494-6.2591-6.31076 0-3.46139 2.7119-6.31078 6.2591-6.31078zm14.519 2.60289h-2.5495v3.19694h2.5495c.2015.00915.4026-.0241.591-.09768.1884-.07359.3601-.18595.5045-.33015.295-.29278.4628-.69889.4665-1.12578.0075-.21657-.0279-.43245-.104-.63467-.076-.20222-.1912-.38661-.3386-.54211-.1446-.15302-.319-.27334-.5118-.3532-.1927-.07987-.3997-.11751-.6076-.11052zm-5.0161-2.01639c0-.16622.1291-.30128.2868-.30128h4.8003c2.2886 0 3.9447 1.76139 3.9447 3.97328.0175 1.496-.7801 2.87017-2.0535 3.53974l2.2139 4.1112c.0306.0473.0479.1023.0499.159.0019.0566-.0115.1128-.0388.1621-.0267.0486-.0664.0883-.1145.1144-.048.0261-.1024.0376-.1566.0329h-1.9428c-.0539.0008-.1069-.014-.1529-.0427-.046-.0288-.0832-.0703-.1072-.1197l-2.1336-4.0687h-2.1383v3.9063c.0006.039-.0063.0777-.0204.114-.014.0363-.0349.0694-.0615.0974-.0265.028-.0582.0503-.0932.0657-.035.0155-.0727.0236-.1108.0241h-1.8718c-.0381-.0005-.0757-.0086-.1107-.0241-.035-.0154-.0667-.0377-.0933-.0657-.0265-.028-.0474-.0611-.0615-.0974-.014-.0363-.021-.075-.0203-.114l-.013-11.4656zm15.4605 2.07305v7.42899h1.8073c.4613-.0064.917-.1075 1.339-.2973.423-.1898.804-.4644 1.121-.8077.65-.7041 1.007-1.64034.993-2.60948.015-.48215-.064-.96253-.231-1.41347-.167-.45093-.42-.86352-.743-1.21398-.319-.3449-.703-.61922-1.129-.80603-.427-.18681-.8856-.28213-1.3491-.28008zm1.8073-2.33183c3.37 0 5.92 2.6775 5.92 6.04634 0 3.36878-2.55 6.04628-5.92 6.04628h-3.976c-.0381-.0004-.0758-.0086-.1108-.0241-.035-.0154-.0667-.0377-.0932-.0657-.0266-.028-.0475-.0611-.0615-.0974-.0141-.0362-.021-.075-.0204-.114v-11.47503c0-.16717.1282-.30222.2859-.30222zm13.44 2.95422-1.399 3.97234h2.795zm-2.219 6.2173-.916 2.6444c-.018.0622-.056.1164-.108.1541-.052.0376-.114.0565-.178.0537h-1.986c-.05.0048-.101-.0044-.147-.0266-.046-.0223-.085-.0568-.114-.1-.029-.0436-.046-.0942-.051-.1468-.004-.0526.005-.1055.026-.1535l4.292-11.4646c.02-.06046.058-.11255.11-.14836.052-.0358.113-.05335.175-.04997h2.223c.062-.00359.124.01385.176.04967.051.03582.09.08804.11.14866l4.292 11.4646c.021.0481.03.101.025.1537-.004.0526-.022.1031-.051.1466-.029.043-.068.0773-.114.0994s-.096.0312-.147.0263h-1.985c-.064.0027-.126-.0162-.178-.0538s-.09-.0918-.108-.154l-.916-2.6445h-4.43zm10.206-5.95946c0-1.89834 1.562-3.53978 4.029-3.53978 1.328-.03038 2.614.47854 3.577 1.41572.03.02842.053.06268.069.10068s.024.07895.024.12032c0 .04138-.008.08232-.024.12032s-.039.07226-.069.10068l-1.1 1.1475c-.026.02788-.057.05005-.092.06519s-.073.02294-.11.02294c-.038 0-.076-.0078-.111-.02294-.034-.01514-.066-.03731-.092-.06519-.518-.49742-1.199-.77925-1.909-.7905-.987 0-1.716.60161-1.716 1.29578 0 2.244 5.83.94917 5.83 5.26714-.002 2.1883-1.576 3.8439-4.359 3.8439-.773.0081-1.54-.1431-2.254-.4445-.715-.3015-1.363-.7471-1.906-1.3103-.029-.0284-.053-.0626-.069-.1006-.015-.038-.024-.079-.024-.1204 0-.0413.009-.0823.024-.1203.016-.038.04-.0722.069-.1007l1.064-1.1182c.027-.0292.059-.0525.095-.0685.035-.0159.074-.0242.113-.0242s.077.0083.113.0242c.036.016.068.0393.094.0685.67.6799 1.572 1.0661 2.515 1.0767 1.233 0 2.045-.6914 2.045-1.5574 0-2.24495-5.828-.9492-5.828-5.26812zm18.879-2.96839v4.53711h-4.935v-4.53711c0-.03895-.007-.07761-.021-.11378s-.035-.06914-.061-.09703c-.027-.02789-.058-.05015-.093-.06551s-.073-.02352-.111-.02402h-1.872c-.038.0005-.075.00866-.11.02402s-.067.03762-.093.06551c-.027.02789-.048.06086-.062.09703s-.021.07483-.021.11378v11.46275c0 .1662.129.3012.286.3012h1.872c.157 0 .286-.135.286-.3012v-4.60892h4.931v4.60892c0 .1662.129.3012.286.3012h1.872c.157 0 .286-.135.286-.3012v-11.46275c0-.03895-.007-.07761-.021-.11378s-.035-.06914-.062-.09703c-.026-.02789-.058-.05015-.093-.06551s-.072-.02352-.11-.02402h-1.872c-.076.00199-.148.03462-.201.09084s-.082.13149-.081.2095zm-111.3401 1.22966c-1.2983-2.465-3.8386-3.999718-6.6012-3.990273h-20.901656c-.141155.000587-.27902.043704-.396418.12398s-.209139.194161-.2637901.327464c-.05385258.132449-.06787817.278348-.0402803.419009.0275978.14067.0955624.26969.1951894.37055l4.553225 4.62777c.40202.40989.94974.63939 1.51958.63939h14.73485c1.0502-.01133 1.9087.84056 1.9197 1.90117.0111 1.06061-.8308 1.92953-1.881 1.93993h-10.1586c-.1412 0-.2793.0427-.3971.1226-.1177.08-.2098.1937-.2649.3269-.0544.1326-.0688.2788-.0413.4199.0274.141.0954.2704.1953.3716l4.556 4.6315c.4045.4097.9507.6392 1.5196.6385h4.5947c5.9778 0 10.4978-6.46 7.1581-12.87282" fill="#fcfcf7"/></g></svg>