<svg fill="none" height="30" viewBox="0 0 128 30" width="128" xmlns="http://www.w3.org/2000/svg"><g fill="#fcfcf7"><path d="m49.0059 21.7956v-12.7956h5.1635c2.2217 0 3.6663 1.6688 3.6663 3.8883s-1.4446 3.8925-3.6663 3.8925h-3.1888v5.0064zm1.9747-11.0684v4.3431h3.0998c.9874 0 1.7806-1.0347 1.7806-2.182s-.8094-2.1611-1.7806-2.1611zm16.8181 8.3816c.6353-.1293 1.2545-.2545 1.8696-.363.1254.726.5463 1.5979 1.9748 1.5979.3196 0 1.8857-.1252 1.8857-1.2891 0-2.1987-5.463.0709-5.463-3.8717 0-1.5645 1.5134-2.7452 3.4194-2.7452s3.5247.8344 3.7918 2.8704c-.6353.1126-1.2545.2378-1.8696.3671-.1254-1.1473-.8093-1.5645-1.8696-1.5645-.9347 0-1.5701.509-1.5701 1.0722 0 .7468.6718.9429 1.728 1.0555 2.0233.217 3.7189.6717 3.7189 2.8162 0 1.9274-1.6187 2.9454-3.7715 2.9454-2.2905 0-3.5976-1.2516-3.8444-2.8912zm8.1136-5.0064v-1.502h1.5337v-2.67004h1.906v2.65344h1.8493v1.5186h-1.8493v5.215c0 .7259.2104.947.8093.947.2631 0 .8458-.0375.8458-.0375v1.5812s-.6839.0709-1.3597.0709c-1.6753 0-2.2216-.9262-2.2216-2.6868v-5.0898zm11.9216 2.5699c0-1.4018-.2995-2.5824-1.728-2.5824-1.3596 0-1.7279 1.1806-1.7279 2.5824v5.1233h-1.906v-9.1785h1.7279l.1781.9971c.263-.5089 1.3233-1.1806 2.3633-1.1806.4976-.0301.9936.0831 1.4324.327s.8031.6088 1.0522 1.0539c.4775-.8344 1.6187-1.3809 2.679-1.3809 2.428 0 3.1726 1.5269 3.1726 4.2554v5.1233h-1.8777v-5.14c0-1.3851-.3683-2.5991-1.7279-2.5991-1.4285 0-1.728 1.1807-1.728 2.5991v5.1233h-1.9019zm10.6994-.9011c-.6151-.1085-1.2504-.2545-1.8857-.363.1942-2.0359 1.8169-2.983 3.6864-2.983 2.521 0 3.824 1.2516 3.824 3.7799v3.1999c0 .5465.105.8553.478.8553.155-.0023.309-.0276.457-.0751v1.602c-.368.1028-.748.152-1.129.1461-.371.0245-.738-.0971-1.025-.3402-.288-.2432-.475-.5898-.525-.9699-.342.4201-.767.7593-1.248.9947-.48.2354-1.004.3614-1.536.3696-2.0638 0-3.2981-1.1849-3.2981-2.9204 0-1.4352 1.2869-2.7452 3.6421-2.7452h2.294v-.5507c0-.7093-.283-1.6688-1.922-1.6688-1.0924 0-1.7641.5632-1.8005 1.6688zm3.7347 2.4698v-.4547h-2.1c-1.5659 0-1.8856.8344-1.8856 1.2724 0 .6175.4047 1.2516 1.5702 1.2516 1.5494 0 2.4284-1.0889 2.4284-2.086zm-39.7947 3.7548c-.9181 0-1.8155-.2806-2.5788-.8064-.7633-.5259-1.3582-1.2732-1.7095-2.1476s-.4432-1.8366-.2641-2.7648c.1791-.9283.6211-1.781 1.2703-2.4502.6491-.6692 1.4762-1.125 2.3765-1.3096.9004-.1847 1.8337-.0899 2.6818.2723s1.573.9755 2.0831 1.7624c.51.787.7822 1.7122.7822 2.6586-.0011 1.2688-.4904 2.4853-1.3607 3.3825-.8702.8972-2.0502 1.4017-3.2808 1.4028zm0-7.7432c-.5685 0-1.1241.1738-1.5967.4995-.4726.3256-.8408.7885-1.0582 1.33-.2173.5415-.274 1.1373-.1628 1.712s.3852 1.1025.7875 1.5166c.4022.4141.9145.6959 1.4721.8097s1.1354.0546 1.6604-.1703c.5249-.2248.9733-.6051 1.2886-1.0928.3152-.4876.483-1.0607.4822-1.6468-.0011-.7849-.3042-1.5372-.843-2.0918-.5387-.5546-1.2688-.8661-2.0301-.8661zm54.4687 4.3472c.582.1627 1.161.3421 1.744.5257-.405 1.3267-1.619 2.8536-4.047 2.8536s-4.196-1.9441-4.196-4.7811 1.618-4.7811 4.107-4.7811 4.023 1.7105 4.023 4.4891c.005.2925-.007.5851-.037.8761h-6.127c.037 1.3434.935 2.5408 2.222 2.5408.515.0149 1.021-.1459 1.439-.4574s.724-.7564.872-1.2657zm-.405-2.2904c-.053-1.3643-.688-2.2362-1.995-2.2362s-1.991 1.0889-2.044 2.2362zm2.853 2.7994c.635-.1252 1.254-.2545 1.87-.363.125.726.546 1.5979 1.974 1.5979.316 0 1.886-.1252 1.886-1.2891 0-2.1987-5.463.0751-5.463-3.8717 0-1.5603 1.514-2.7452 3.42-2.7452s3.524.8344 3.787 2.8746c-.631.1084-1.25.2336-1.865.3629-.126-1.1473-.81-1.5645-1.87-1.5645-.935 0-1.57.509-1.57 1.0722 0 .7468.672.9471 1.728 1.0555 2.023.217 3.719.6717 3.719 2.8162 0 1.9274-1.619 2.9454-3.772 2.9454-2.29 0-3.597-1.2516-3.844-2.8912zm-14.58-5.0064v-1.502h1.533v-2.67004h1.906v2.65344h1.85v1.5186h-1.85v5.215c0 .7259.211.947.83.947.263 0 .846-.0375.846-.0375v1.5812s-.68.0709-1.36.0709c-1.671 0-2.222-.9262-2.222-2.6868v-5.0898z"/><path d="m39.7921 11.4547c-.6111-.8478-1.4531-1.50203-2.4256-1.88464-.9726-.38261-2.0346-.47748-3.0596-.2733-.7576.15072-1.4739.46273-2.1002.91484-.2914.2081-.5535.4427-.79.6953l-1.6102-1.25443c.4608-.17218 1.8969-.74927 1.3027-1.06242-.1589-.0946-.4843-.1419-.9044-.17312l3.4682-3.02737-.9772-1.90346-3.2213 2.88924s-.0029-.00472-.316.28193l-.0066.00568h-.0038c-.6831-.04447-1.3264.01324-1.6812.06338l-.0009-.00189c-.7218.12961-1.3245.22327-1.6244.16556-1.0577-.2053-1.3074-1.33015-1.7861-1.98387-.2725-.37086-.8203-.41343-.8666-.73225.1452-.02687.2866-.07135.421-.13245.5809-.27719.7824-.53736.9394-.88929.2006-.44653-.0132-1.18067-.3122-1.7975.2413-.17407 1.1391-.875097 1.1041-.995245-.0123-.044465-1.1315.109742-1.6008.201509-.0552-.070489-.1187-.134024-.1892-.18921-.3831-.2819239-.6972-.567632-1.6007-.191103-1.5458.646154-1.4664 1.851429-.9527 2.925199.2365.49762.65.80982 1.1003.96781l-.0681.13055.0425-.1069c-2.4408 2.20146-8.1379 5.90905-9.6497 5.98285 1.2431.4844 4.8192.5506 6.3177-.34343-.4209 1.70293-.4465 3.40103.2763 4.23833-.5544.4115-1.1277.8552-1.4039 1.1353-.2176.2109-.1514.3197.035.5676 0 0 1.4503.0284 1.8807-.3822.1154-.1088.2157-.2082.3065-.3009l2.0151 1.4125-.1892 2.0217c-.3431.0012-.6852.0354-1.0217.1022-.7597.1513-1.4664.4607-2.1003.9158-2.4332 1.7502-2.9923 5.1512-1.244 7.5854.6111.8483 1.4534 1.5029 2.4263 1.8857s2.0354.4777 3.0608.2732c.7597-.1533 1.4664-.4598 2.1002-.9158 1.0769-.776 1.8329-1.9189 2.1257-3.2136.2927-1.2947.102-2.6517-.5363-3.8155l.3973-.2555c.3993.2195.9045.2081 1.299-.0757s.5695-.7691.473-1.2298l1.7483-.5298c.6594-.1949.7568-.3926.5932-.719-.2224-.4447-1.8921-.0426-2.1097-.2838l-.4731-1.0662.9149-6.6962 1.5439 1.1466c-.6345.9214-.9695 2.016-.9593 3.1347.0101 1.1187.3649 2.2071 1.0161 3.1168.6111.8484 1.4534 1.503 2.4263 1.8858.973.3828 2.0355.4776 3.0608.2731.7574-.1518 1.4736-.4641 2.1002-.9158 2.4342-1.7502 2.9934-5.1522 1.2451-7.5854zm-14.1766-3.50229c.8042.07096 1.631.00379 2.3595-.10785l.2649.58656c-.5679.03344-1.1337.09532-1.6954.18542-.4238.07001-1.5241-1.01984-.929-.66413zm-5.2648 6.59019c.1733-.0017.3462-.0185.5166-.0501 1.0567-.1008 2.1099-.2359 3.1579-.4049l-1.8401 1.7502zm4.7322-.3973c-.3945 1.367-.789 2.3273-1.0445 3.0037l-1.2109-.8562zm-2.7455 5.4379c1.1068.1607 2.1089.7422 2.7975 1.6234l-3.1371 2.0246zm1.9111 7.8068c-.4989.3613-1.0697.611-1.6736.7323-.8174.1621-1.6642.0861-2.4396-.219-.7755-.3051-1.4471-.8263-1.935-1.5019-.6687-.9345-.9398-2.096-.7538-3.2301.186-1.134.814-2.148 1.7463-2.8199.4991-.3613 1.0702-.6108 1.6745-.7313.2317-.0457.4668-.0722.7029-.0795l-.4115 4.4086c-.0065.0719.0073.1442.0397.2087.0325.0646.0822.1187.1438.1565.0825.0509.1814.0681.2762.0482.0474-.0089.0924-.0272.1325-.0539l3.8031-2.4531c.9915 1.8921.473 4.2601-1.3036 5.5344zm1.8164-6.7832c-.4335-.5756-.9771-1.0593-1.5991-1.4231s-1.3101-.6004-2.0243-.696l.1448-1.5563 1.2317.8704c-.1353.4948-.0776.7568.3245.9176l2.1542.8345.0123.0094c-.089.2782-.0814.5847.0406.8515zm1.368-1.8921c-.1839.0067-.3637.0553-.526.1419-.0946-.1088-.2365-.2176-.4977-.386-.1892-.1267-1.0936-.6641-1.0595-.7757.1296-.3898.4219-.9707.8448-1.7928.4446.4891.8893 1.3226 1.3283 2.1627zm.4068-2.9848-.9811-2.2705c.0312-.3595.0133-.6812-.069-.9498l1.7029-1.6292zm-1.5109-3.8353c-1.0378-.7568-3.1825-.3784-4.5789-.1542.475-.999 1.3132-2.03211 1.5922-3.23549.1514.75873 2.649 1.62149 2.649 1.62149s1.14-.25255 2.1248-.63854c.0095.00946.0218.01892.0322.02838l.3765.28003zm11.5608 6.2506c-.4995.3604-1.0705.6095-1.6745.7303-1.667.334-3.3831-.3405-4.3765-1.7218-1.086-1.5137-1.0406-3.4928-.0662-4.9535l3.4929 2.5922c.07.053.1551.0728.2365.0634.0813-.0095.1703-.053.227-.1278.0526-.0699.0754-.1579.0633-.2445-.012-.0867-.0579-.1651-.1276-.2181l-3.3945-2.6745c.1722-.179.3603-.3421.562-.4872.4991-.3613 1.0703-.6107 1.6745-.7313.8177-.1622 1.6647-.0861 2.4403.2191.7757.3052 1.4474.8268 1.9352 1.5027.6689.9344.9401 2.0959.7543 3.2299s-.8136 2.1481-1.7458 2.8201zm-26.375-2.7256-1.0634-1.8921-.2516 2.1551-2.12864.4257 1.97154.9064-.25162 2.1551 1.47022-1.597 1.9725.9063-1.0624-1.8921 1.4701-1.5969zm-.9527 9.1294-1.0624-1.8921-.25165 2.1551-2.12862.4257 1.97158.9064-.25165 2.157 1.47014-1.597 1.9725.9063-1.0624-1.8921 1.4692-1.5912zm-7.11241-3.2601-1.06242-1.8921-.25259 2.157-2.12862062.4257 1.97252062.9045-.2526 2.157 1.47112-1.597 1.97157.9063-1.06242-1.8921 1.47017-1.5941zm23.80271-15.07344c.5857-.02643 1.1723-.02359 1.7577.00852l3.2734-2.93277-1.438-.1438-3.6083 3.06994"/></g></svg>